<svg width="834" height="283" viewBox="0 0 834 283" fill="none" xmlns="http://www.w3.org/2000/svg">
<path d="M276.418 183.505C277.235 192.699 279.533 199.748 283.313 204.651C290.26 213.539 302.315 217.983 319.477 217.983C329.693 217.983 338.683 215.786 346.447 211.394C354.211 206.899 358.093 200.003 358.093 190.707C358.093 183.658 354.977 178.294 348.746 174.617C344.761 172.369 336.895 169.764 325.147 166.802L303.234 161.285C289.238 157.812 278.92 153.93 272.28 149.639C260.43 142.182 254.505 131.864 254.505 118.685C254.505 103.157 260.072 90.5918 271.208 80.9889C282.445 71.3861 297.513 66.5846 316.412 66.5846C341.135 66.5846 358.961 73.8378 369.892 88.3443C376.737 97.5385 380.057 107.448 379.853 118.072H353.802C353.292 111.841 351.095 106.171 347.213 101.063C340.879 93.8097 329.897 90.1831 314.267 90.1831C303.847 90.1831 295.93 92.1752 290.515 96.1594C285.203 100.144 282.547 105.405 282.547 111.943C282.547 119.094 286.072 124.815 293.12 129.105C297.207 131.659 303.234 133.907 311.202 135.848L329.438 140.292C349.256 145.093 362.537 149.741 369.279 154.236C380.006 161.285 385.369 172.369 385.369 187.489C385.369 202.097 379.802 214.714 368.666 225.338C357.633 235.963 340.777 241.275 318.098 241.275C293.682 241.275 276.367 235.758 266.151 224.725C256.037 213.59 250.623 199.85 249.908 183.505H276.418ZM416.936 9.12072H444.519V93.0946C451.057 84.8198 456.931 78.9968 462.141 75.6256C471.029 69.8026 482.113 66.8911 495.393 66.8911C519.196 66.8911 535.337 75.217 543.816 91.8687C548.413 100.961 550.712 113.577 550.712 129.718V234.992H522.363V131.557C522.363 119.503 520.831 110.666 517.766 105.047C512.76 96.0572 503.362 91.5623 489.57 91.5623C478.129 91.5623 467.76 95.4954 458.463 103.362C449.167 111.228 444.519 126.092 444.519 147.954V234.992H416.936V9.12072ZM656.752 217.217C675.038 217.217 687.553 210.321 694.295 196.53C701.14 182.636 704.562 167.21 704.562 150.252C704.562 134.928 702.11 122.465 697.207 112.862C689.443 97.7428 676.06 90.1831 657.059 90.1831C640.202 90.1831 627.943 96.6191 620.282 109.491C612.62 122.363 608.789 137.891 608.789 156.075C608.789 173.544 612.62 188.102 620.282 199.748C627.943 211.394 640.1 217.217 656.752 217.217ZM657.825 66.1249C678.971 66.1249 696.849 73.1738 711.458 87.2716C726.066 101.369 733.371 122.108 733.371 149.486C733.371 175.945 726.935 197.807 714.063 215.071C701.191 232.336 681.219 240.968 654.147 240.968C631.57 240.968 613.641 233.358 600.361 218.136C587.08 202.812 580.44 182.279 580.44 156.535C580.44 128.952 587.438 106.988 601.433 90.6428C615.429 74.2976 634.226 66.1249 657.825 66.1249ZM771.833 25.0574H799.722V70.8753H825.926V93.4011H799.722V200.514C799.722 206.235 801.663 210.066 805.545 212.007C807.691 213.13 811.266 213.692 816.272 213.692C817.6 213.692 819.03 213.692 820.563 213.692C822.095 213.59 823.883 213.437 825.926 213.233V234.992C822.759 235.912 819.439 236.576 815.965 236.984C812.594 237.393 808.917 237.597 804.932 237.597C792.06 237.597 783.326 234.328 778.729 227.79C774.132 221.15 771.833 212.568 771.833 202.046V93.4011H749.614V70.8753H771.833V25.0574Z" fill="black"/>
<path d="M121.057 12.399C160.797 12.399 190.218 25.1688 209.322 50.7083C224.237 70.6291 231.694 96.1176 231.694 127.174C231.694 160.784 223.164 188.724 206.104 210.994C186.081 237.147 157.528 250.223 120.444 250.223C85.8128 250.223 58.5876 238.781 38.769 215.898C21.0956 193.832 12.259 165.943 12.259 132.23C12.259 101.787 19.8187 75.737 34.9381 54.0795C54.3481 26.2925 83.0545 12.399 121.057 12.399ZM124.122 222.947C150.99 222.947 170.4 213.344 182.352 194.138C194.407 174.83 200.434 152.662 200.434 127.633C200.434 101.174 193.487 79.8744 179.594 63.7334C165.803 47.5925 146.903 39.522 122.896 39.522C99.6041 39.522 80.6027 47.5414 65.8919 63.5802C51.1812 79.5169 43.8258 103.064 43.8258 134.223C43.8258 159.149 50.1085 180.194 62.674 197.356C75.3416 214.417 95.8243 222.947 124.122 222.947Z" fill="black"/>
<path d="M185.078 259.221L215.796 233.125L223.934 243.96C224.225 244.336 224.442 244.77 224.573 245.238C224.703 245.706 224.745 246.198 224.694 246.686C224.59 247.617 224.134 248.509 223.348 249.176L198.184 270.684C197.828 271.001 197.415 271.24 196.971 271.385C196.527 271.53 196.061 271.578 195.602 271.526C195.142 271.475 194.698 271.324 194.297 271.085C193.896 270.845 193.547 270.521 193.27 270.132L185.078 259.221ZM151.579 185.48C151.809 183.431 153.577 181.932 155.508 182.149C170.955 183.882 184.813 191.85 194.554 204.826L211.698 227.667L180.976 253.762L163.736 230.792C153.973 218.002 149.74 201.872 151.579 185.48Z" fill="black"/>
</svg>
