<svg width="386" height="128" viewBox="0 0 386 128" fill="none" xmlns="http://www.w3.org/2000/svg">
<path d="M127.953 86.1665C128.331 90.4225 129.395 93.6854 131.145 95.9553C134.361 100.069 139.941 102.126 147.885 102.126C152.614 102.126 156.775 101.11 160.369 99.0763C163.963 96.9956 165.76 93.8036 165.76 89.5003C165.76 86.2374 164.318 83.7548 161.433 82.0524C159.589 81.012 155.948 79.8062 150.51 78.4348L140.366 75.8812C133.888 74.2734 129.112 72.4764 126.038 70.4903C120.552 67.0382 117.81 62.262 117.81 56.1618C117.81 48.9739 120.387 43.1574 125.541 38.7123C130.743 34.2671 137.718 32.0446 146.467 32.0446C157.91 32.0446 166.162 35.4021 171.222 42.117C174.391 46.373 175.927 50.96 175.833 55.8781H163.774C163.538 52.9935 162.521 50.3689 160.724 48.0045C157.792 44.647 152.709 42.9682 145.473 42.9682C140.65 42.9682 136.985 43.8904 134.479 45.7346C132.02 47.5789 130.79 50.0143 130.79 53.0407C130.79 56.351 132.422 58.9991 135.685 60.9852C137.576 62.1675 140.366 63.2078 144.055 64.1063L152.496 66.1634C161.67 68.3859 167.817 70.5376 170.938 72.6183C175.904 75.8812 178.386 81.012 178.386 88.0107C178.386 94.773 175.809 100.613 170.655 105.531C165.548 110.449 157.745 112.908 147.247 112.908C135.945 112.908 127.929 110.355 123.2 105.247C118.519 100.093 116.013 93.7327 115.682 86.1665H127.953ZM192.999 5.44465H205.767V44.316C208.793 40.4856 211.512 37.7901 213.924 36.2296C218.038 33.5341 223.169 32.1864 229.316 32.1864C240.335 32.1864 247.806 36.0404 251.731 43.7485C253.859 47.9572 254.923 53.7974 254.923 61.269V110H241.801V62.1202C241.801 56.5401 241.091 52.4496 239.673 49.8488C237.355 45.6873 233.005 43.6066 226.621 43.6066C221.325 43.6066 216.525 45.4273 212.221 49.0685C207.918 52.7097 205.767 59.5902 205.767 69.71V110H192.999V5.44465ZM304.009 101.772C312.474 101.772 318.266 98.5798 321.388 92.1958C324.556 85.7645 326.14 78.6239 326.14 70.774C326.14 63.6807 325.005 57.9115 322.735 53.4663C319.141 46.4676 312.946 42.9682 304.151 42.9682C296.348 42.9682 290.673 45.9474 287.127 51.9058C283.58 57.8642 281.807 65.0521 281.807 73.4695C281.807 81.5558 283.58 88.2945 287.127 93.6854C290.673 99.0763 296.301 101.772 304.009 101.772ZM304.505 31.8318C314.294 31.8318 322.57 35.0947 329.332 41.6205C336.094 48.1464 339.475 57.746 339.475 70.4193C339.475 82.6671 336.496 92.7869 330.538 100.779C324.579 108.77 315.335 112.766 302.803 112.766C292.352 112.766 284.053 109.243 277.906 102.197C271.758 95.1041 268.684 85.599 268.684 73.6823C268.684 60.9143 271.924 50.7472 278.402 43.181C284.881 35.6148 293.582 31.8318 304.505 31.8318ZM357.28 12.8217H370.189V34.0307H382.319V44.4578H370.189V94.0401C370.189 96.6882 371.088 98.4616 372.885 99.36C373.878 99.8802 375.533 100.14 377.85 100.14C378.465 100.14 379.127 100.14 379.836 100.14C380.546 100.093 381.373 100.022 382.319 99.9275V110C380.853 110.426 379.316 110.733 377.708 110.922C376.148 111.111 374.445 111.206 372.601 111.206C366.643 111.206 362.6 109.693 360.472 106.666C358.344 103.592 357.28 99.6201 357.28 94.7494V44.4578H346.994V34.0307H357.28V12.8217Z" fill="black"/>
<path d="M56.0371 6.96199C74.4324 6.96199 88.0516 12.8731 96.8946 24.6953C103.799 33.9166 107.251 45.7151 107.251 60.0909C107.251 75.6489 103.302 88.5823 95.405 98.8913C86.1364 110.997 72.9192 117.05 55.7534 117.05C39.7225 117.05 27.1201 111.754 17.9461 101.161C9.76512 90.9468 5.67465 78.0369 5.67465 62.4317C5.67465 48.3396 9.17401 36.281 16.1727 26.2558C25.1576 13.3933 38.4457 6.96199 56.0371 6.96199ZM57.4558 104.424C69.8927 104.424 78.8776 99.9789 84.4104 91.0886C89.9904 82.151 92.7805 71.8894 92.7805 60.3037C92.7805 48.0559 89.5648 38.1962 83.1336 30.7246C76.7496 23.253 68.0012 19.5171 56.8883 19.5171C46.1065 19.5171 37.3108 23.2293 30.5012 30.6536C23.6916 38.0307 20.2869 48.9307 20.2869 63.3538C20.2869 74.8922 23.1951 84.6337 29.0116 92.5782C34.8754 100.475 44.3568 104.424 57.4558 104.424Z" fill="black"/>
<path d="M85.6722 120.993L99.8913 108.913L103.658 113.929C103.793 114.103 103.894 114.304 103.954 114.52C104.015 114.737 104.034 114.965 104.01 115.19C103.962 115.621 103.751 116.034 103.387 116.343L91.7391 126.299C91.574 126.446 91.383 126.556 91.1774 126.623C90.9719 126.691 90.7562 126.713 90.5435 126.689C90.3307 126.665 90.1253 126.596 89.9397 126.485C89.7542 126.374 89.5923 126.224 89.464 126.044L85.6722 120.993ZM70.1657 86.8584C70.2721 85.91 71.0905 85.216 71.9842 85.3163C79.1344 86.1186 85.5494 89.8069 90.0587 95.8135L97.9945 106.387L83.7734 118.466L75.7928 107.833C71.2738 101.913 69.3143 94.4462 70.1657 86.8584Z" fill="black"/>
</svg>
